{
	"asset":{
		"generator":"Khronos glTF Blender I/O v3.6.28",
		"version":"2.0"
	},
	"extensionsUsed":[
		"KHR_materials_emissive_strength"
	],
	"scene":0,
	"scenes":[
		{
			"name":"Scene",
			"nodes":[
				1
			]
		}
	],
	"nodes":[
		{
			"mesh":0,
			"name":"Tube004_14 - Default_0.001",
			"rotation":[
				0.7071068286895752,
				0,
				-0.7071068286895752,
				0
			],
			"scale":[
				0.19999998807907104,
				0.19999998807907104,
				0.19999998807907104
			]
		},
		{
			"children":[
				0
			],
			"name":"Tube004.001",
			"rotation":[
				1,
				0,
				0,
				0
			]
		}
	],
	"materials":[
		{
			"doubleSided":true,
			"emissiveFactor":[
				0.49828237295150757,
				0.08104981482028961,
				1
			],
			"extensions":{
				"KHR_materials_emissive_strength":{
					"emissiveStrength":3.799999237060547
				}
			},
			"name":"14_-_Default.001",
			"pbrMetallicRoughness":{
				"baseColorFactor":[
					0,
					0,
					0,
					1
				]
			}
		},
		{
			"doubleSided":true,
			"emissiveFactor":[
				0.004843568429350853,
				0.003999925218522549,
				1
			],
			"extensions":{
				"KHR_materials_emissive_strength":{
					"emissiveStrength":3.799999952316284
				}
			},
			"name":"14_-_Default",
			"pbrMetallicRoughness":{
				"baseColorFactor":[
					0,
					0,
					0,
					1
				]
			}
		},
		{
			"doubleSided":true,
			"name":"Material_161_Tube004",
			"pbrMetallicRoughness":{
				"baseColorFactor":[
					0,
					0,
					0,
					1
				],
				"metallicFactor":0,
				"roughnessFactor":0.08708079159259796
			}
		}
	],
	"meshes":[
		{
			"name":"Tube004_14 - Default_0.001",
			"primitives":[
				{
					"attributes":{
						"POSITION":0,
						"NORMAL":1,
						"TEXCOORD_0":2
					},
					"indices":3,
					"material":0
				},
				{
					"attributes":{
						"POSITION":4,
						"NORMAL":5,
						"TEXCOORD_0":6
					},
					"indices":3,
					"material":1
				},
				{
					"attributes":{
						"POSITION":7,
						"NORMAL":8,
						"TEXCOORD_0":9
					},
					"indices":10,
					"material":2
				}
			]
		}
	],
	"accessors":[
		{
			"bufferView":0,
			"componentType":5126,
			"count":130,
			"max":[
				28.770084381103516,
				32.00796890258789,
				2.49371600151062
			],
			"min":[
				-28.646533966064453,
				-33.14950180053711,
				1.642082929611206
			],
			"type":"VEC3"
		},
		{
			"bufferView":1,
			"componentType":5126,
			"count":130,
			"type":"VEC3"
		},
		{
			"bufferView":2,
			"componentType":5126,
			"count":130,
			"type":"VEC2"
		},
		{
			"bufferView":3,
			"componentType":5123,
			"count":384,
			"type":"SCALAR"
		},
		{
			"bufferView":4,
			"componentType":5126,
			"count":130,
			"max":[
				28.697559356689453,
				32.00798034667969,
				-1.102973222732544
			],
			"min":[
				-28.719066619873047,
				-33.149513244628906,
				-1.9546210765838623
			],
			"type":"VEC3"
		},
		{
			"bufferView":5,
			"componentType":5126,
			"count":130,
			"type":"VEC3"
		},
		{
			"bufferView":6,
			"componentType":5126,
			"count":130,
			"type":"VEC2"
		},
		{
			"bufferView":7,
			"componentType":5126,
			"count":656,
			"max":[
				29.752838134765625,
				34.368045806884766,
				2.0548083782196045
			],
			"min":[
				-29.77434539794922,
				-34.368045806884766,
				-2.2384989261627197
			],
			"type":"VEC3"
		},
		{
			"bufferView":8,
			"componentType":5126,
			"count":656,
			"type":"VEC3"
		},
		{
			"bufferView":9,
			"componentType":5126,
			"count":656,
			"type":"VEC2"
		},
		{
			"bufferView":10,
			"componentType":5123,
			"count":1992,
			"type":"SCALAR"
		}
	],
	"bufferViews":[
		{
			"buffer":0,
			"byteLength":1560,
			"byteOffset":0,
			"target":34962
		},
		{
			"buffer":0,
			"byteLength":1560,
			"byteOffset":1560,
			"target":34962
		},
		{
			"buffer":0,
			"byteLength":1040,
			"byteOffset":3120,
			"target":34962
		},
		{
			"buffer":0,
			"byteLength":768,
			"byteOffset":4160,
			"target":34963
		},
		{
			"buffer":0,
			"byteLength":1560,
			"byteOffset":4928,
			"target":34962
		},
		{
			"buffer":0,
			"byteLength":1560,
			"byteOffset":6488,
			"target":34962
		},
		{
			"buffer":0,
			"byteLength":1040,
			"byteOffset":8048,
			"target":34962
		},
		{
			"buffer":0,
			"byteLength":7872,
			"byteOffset":9088,
			"target":34962
		},
		{
			"buffer":0,
			"byteLength":7872,
			"byteOffset":16960,
			"target":34962
		},
		{
			"buffer":0,
			"byteLength":5248,
			"byteOffset":24832,
			"target":34962
		},
		{
			"buffer":0,
			"byteLength":3984,
			"byteOffset":30080,
			"target":34963
		}
	],
	"buffers":[
		{
			"byteLength":34064,
			"uri":"data:application/octet-stream;base64,"
		}
	]
}
