{
	"asset":{
		"generator":"Khronos glTF Blender I/O v3.6.28",
		"version":"2.0"
	},
	"scene":0,
	"scenes":[
		{
			"name":"Scene",
			"nodes":[
				4
			]
		}
	],
	"nodes":[
		{
			"mesh":0,
			"name":"Tube004_14 - Default_0",
			"rotation":[
				0.5,
				0.5,
				-0.5,
				0.5
			],
			"translation":[
				-1.686263084411621,
				-29.250059127807617,
				0.009994505904614925
			]
		},
		{
			"children":[
				0
			],
			"name":"Tube004",
			"translation":[
				1.686263084411621,
				29.250064849853516,
				-0.0099945068359375
			]
		},
		{
			"children":[
				1
			],
			"name":"RootNode"
		},
		{
			"children":[
				2
			],
			"name":"463a1c194f0c445aa12eafcb5ce30cb3.fbx"
		},
		{
			"children":[
				3
			],
			"name":"Sketchfab_model"
		}
	],
	"materials":[
		{
			"doubleSided":true,
			"name":"14_-_Default",
			"pbrMetallicRoughness":{
				"baseColorFactor":[
					1,
					0.9602083563804626,
					0,
					1
				],
				"metallicFactor":0.361471027135849
			}
		},
		{
			"doubleSided":true,
			"name":"Material_161_Tube004",
			"pbrMetallicRoughness":{
				"baseColorFactor":[
					0,
					0,
					0,
					1
				],
				"metallicFactor":0,
				"roughnessFactor":0.08708079159259796
			}
		}
	],
	"meshes":[
		{
			"name":"Tube004_14 - Default_0",
			"primitives":[
				{
					"attributes":{
						"POSITION":0,
						"NORMAL":1,
						"TEXCOORD_0":2
					},
					"indices":3,
					"material":0
				},
				{
					"attributes":{
						"POSITION":4,
						"NORMAL":5,
						"TEXCOORD_0":6
					},
					"indices":7,
					"material":1
				}
			]
		}
	],
	"accessors":[
		{
			"bufferView":0,
			"componentType":5126,
			"count":130,
			"max":[
				28.708309173583984,
				0.2991727590560913,
				33.149497985839844
			],
			"min":[
				-28.708309173583984,
				-0.5524746179580688,
				-32.007965087890625
			],
			"type":"VEC3"
		},
		{
			"bufferView":1,
			"componentType":5126,
			"count":130,
			"type":"VEC3"
		},
		{
			"bufferView":2,
			"componentType":5126,
			"count":130,
			"type":"VEC2"
		},
		{
			"bufferView":3,
			"componentType":5123,
			"count":384,
			"type":"SCALAR"
		},
		{
			"bufferView":4,
			"componentType":5126,
			"count":663,
			"max":[
				29.76358985900879,
				0.5830504894256592,
				34.3680305480957
			],
			"min":[
				-29.76358985900879,
				-3.710254669189453,
				-34.3680305480957
			],
			"type":"VEC3"
		},
		{
			"bufferView":5,
			"componentType":5126,
			"count":663,
			"type":"VEC3"
		},
		{
			"bufferView":6,
			"componentType":5126,
			"count":663,
			"type":"VEC2"
		},
		{
			"bufferView":7,
			"componentType":5123,
			"count":1992,
			"type":"SCALAR"
		}
	],
	"bufferViews":[
		{
			"buffer":0,
			"byteLength":1560,
			"byteOffset":0,
			"target":34962
		},
		{
			"buffer":0,
			"byteLength":1560,
			"byteOffset":1560,
			"target":34962
		},
		{
			"buffer":0,
			"byteLength":1040,
			"byteOffset":3120,
			"target":34962
		},
		{
			"buffer":0,
			"byteLength":768,
			"byteOffset":4160,
			"target":34963
		},
		{
			"buffer":0,
			"byteLength":7956,
			"byteOffset":4928,
			"target":34962
		},
		{
			"buffer":0,
			"byteLength":7956,
			"byteOffset":12884,
			"target":34962
		},
		{
			"buffer":0,
			"byteLength":5304,
			"byteOffset":20840,
			"target":34962
		},
		{
			"buffer":0,
			"byteLength":3984,
			"byteOffset":26144,
			"target":34963
		}
	],
	"buffers":[
		{
			"byteLength":30128,
			"uri":"data:application/octet-stream;base64,"
		}
	]
}
